<svg width="165" height="68" viewBox="0 0 165 68" fill="none" xmlns="http://www.w3.org/2000/svg">
<g clip-path="url(#clip0_1287_1304)">
<mask id="mask0_1287_1304" style="mask-type:luminance" maskUnits="userSpaceOnUse" x="-22" y="-23" width="165" height="92">
<path d="M143 -22.6914H-21.1814V68.0002H143V-22.6914Z" fill="white"/>
</mask>
<g mask="url(#mask0_1287_1304)">
<path d="M52.772 36.5327C51.9484 37.2524 51.1229 37.927 50.1261 38.3321C49.1273 38.7372 48.0913 38.9652 47.0125 38.9897C45.941 39.0123 44.8864 38.935 43.8429 38.6486C42.8013 38.3622 41.8566 37.8836 40.9063 37.2694C39.2145 39.0028 37.0828 39.5681 34.7443 39.5097C33.3338 39.4739 31.9773 39.2007 30.6916 38.4828C31.3289 37.8554 31.9699 37.2901 32.5326 36.6514C33.0972 36.0107 33.5835 35.2985 34.122 34.5957C34.7071 34.7502 35.3127 34.7785 35.9257 34.7257C36.6859 34.6598 37.6399 33.9362 37.6325 33.0469C37.4983 32.5777 37.2077 32.1425 36.794 31.76C36.0058 31.0327 35.0686 30.5805 34.1034 30.1659C33.263 29.8042 32.5028 29.3143 31.7612 28.7773C31.3065 28.4494 30.8183 28.1706 30.4475 27.7391C29.8513 27.0457 29.2997 26.3241 28.9066 25.4818C28.2414 24.0593 27.1867 23.0229 25.6905 22.5519C22.534 21.5589 19.2248 23.1021 18.3546 26.635C17.9558 28.2516 18.0844 29.8682 18.7664 31.4076C18.8856 31.6771 19.072 31.9164 19.2341 32.1632C19.6831 32.8453 20.2067 33.4501 20.9204 33.8684C23.0818 35.1365 25.8675 34.9462 27.7793 33.0149C28.0718 32.7209 28.2712 32.3328 28.5209 31.9936C29.2848 30.9517 29.4674 29.7401 29.5196 28.4928C29.5271 28.3364 29.5345 28.18 29.5438 28.0067C30.3525 28.5983 31.137 29.1654 31.914 29.742C32.7022 30.328 33.6003 30.7274 34.4239 31.2098C34.545 31.6413 34.3549 31.9955 34.2226 32.3177C33.8388 33.2428 33.4642 34.1793 32.8773 35.0046C31.681 36.689 30.2221 38.0494 28.2973 38.8408C26.8085 39.4532 25.2675 39.6152 23.6688 39.4343C21.9191 39.2346 20.4285 38.496 19.0887 37.3843C18.9061 37.2317 18.7161 37.0866 18.4291 36.8586C18.4086 37.6255 18.3918 38.2642 18.3769 38.886C17.913 39.0255 13.6851 39.0311 13.1876 38.8973C13.1801 38.7391 13.1634 38.5657 13.1634 38.3943C13.1671 35.0498 13.1764 31.7072 13.1746 28.3628C13.1746 27.7994 13.0982 27.2341 13.0963 26.6708C13.0944 25.983 13.1559 25.2953 13.1578 24.6076C13.1634 19.9366 13.1615 15.2657 13.1615 10.5948C13.1615 10.3517 13.1727 10.1086 13.1783 9.88442C13.5975 9.76195 17.6726 9.7318 18.3527 9.84108C18.3676 10.0483 18.3974 10.2707 18.3974 10.4911C18.4012 13.4814 18.3993 16.4716 18.4012 19.4618C18.4012 19.6502 18.4142 19.8368 18.4235 20.1062C18.5912 19.9932 18.6956 19.9423 18.7794 19.8669C20.6576 18.1485 22.8582 17.3044 25.3923 17.4156C27.0283 17.4872 28.5581 17.9413 29.9426 18.8494C30.0879 18.9437 30.2351 19.0341 30.4214 19.1509C32.4077 17.474 34.6978 17.0934 37.1648 17.6209C38.1319 17.8282 39.0654 18.1636 39.9151 18.8287C38.6312 19.9046 37.6362 21.1463 36.9021 22.6084C36.6263 22.5142 36.399 22.4313 36.1679 22.3597C35.5456 22.1619 34.9269 22.1713 34.3195 22.42C33.9096 22.5896 33.5984 22.8628 33.5201 23.3244C33.4344 23.8313 33.6301 24.2533 34.0493 24.5096C34.7667 24.9467 35.5083 25.3424 36.2518 25.7343C36.9785 26.1168 37.7313 26.4522 38.4524 26.846C38.8474 27.0608 39.2014 27.3528 39.5741 27.6091C39.8759 27.8163 40.1964 28.001 40.4778 28.2328C41.2548 28.8696 41.7765 29.6855 42.151 30.6257C42.6951 31.9842 43.6287 33.0073 44.9442 33.6442C46.7497 34.5166 49.541 34.4468 51.2832 32.7869C52.39 31.7317 52.9676 30.4354 53.0831 28.9148C53.1111 28.5455 53.1502 28.1706 53.1204 27.805C53.0943 27.4584 52.9769 27.1192 52.9136 26.7744C52.5465 24.7677 51.3633 23.4224 49.5074 22.7535C47.0721 21.8774 44.0684 22.4822 42.4995 25.1389C42.1119 25.7965 41.9778 26.5144 41.8306 27.2379C41.7653 27.5601 41.7169 27.8879 41.6479 28.2761C41.1635 28.0632 40.8747 27.6713 40.5244 27.3792C40.1443 27.0608 39.7604 26.7763 39.3188 26.5502C38.9014 26.3354 38.5101 26.064 38.1076 25.8191C37.7089 25.576 37.2412 25.4536 36.8741 25.105C37.2505 23.3753 38.0275 21.8755 39.1902 20.5829C40.3418 19.3035 41.7206 18.3558 43.3641 17.847C45.0187 17.3345 46.6957 17.2648 48.3894 17.6643C50.0627 18.0581 51.4434 18.9926 52.7832 20.1552C52.9676 19.394 52.7701 18.7006 52.9285 17.9771C53.48 17.9036 54.0353 17.9507 54.5868 17.9431C55.1645 17.9337 55.7421 17.9413 56.3197 17.9413H58.0359C58.0564 18.1749 58.0824 18.3445 58.0824 18.5141C58.0843 20.9032 58.0824 23.2905 58.0843 25.6797C58.0862 26.1922 58.1439 26.7066 58.1122 27.2153C58.0284 28.5738 58.1048 29.9323 58.0768 31.2889C58.0489 32.6286 58.1011 33.9701 58.075 35.3098C58.0545 36.4045 58.0098 37.503 57.9017 38.5921C57.7843 39.7904 57.5029 40.9568 57.0073 42.0647C56.2061 43.849 54.8887 45.1133 53.1856 45.9895C51.7471 46.7299 50.1987 47.054 48.5963 47.1765C47.51 47.2594 46.4255 47.2349 45.3466 47.1351C43.1293 46.9316 41.061 46.2928 39.3188 44.8213C38.0406 43.7416 37.1443 42.3906 36.5983 40.8023C36.5816 40.7552 36.5965 40.6986 36.5965 40.6195C36.6468 40.5969 36.7046 40.5441 36.7642 40.5441C38.5996 40.5403 40.4368 40.5404 42.2349 40.5404C42.6169 40.8343 42.9523 41.1169 43.3119 41.3619C44.1168 41.9083 45.0392 42.1363 45.982 42.2361C47.2938 42.3737 48.6056 42.3285 49.8745 41.9026C50.754 41.6068 51.5124 41.1263 52.0825 40.3614C52.431 39.8922 52.6136 39.3552 52.6956 38.7994C52.7943 38.1192 52.8055 37.4277 52.8484 36.7399C52.8577 36.6872 52.8186 36.6419 52.772 36.5327Z" fill="#063231"/>
</g>
<mask id="mask1_1287_1304" style="mask-type:luminance" maskUnits="userSpaceOnUse" x="-22" y="-23" width="165" height="92">
<path d="M143 -22.6914H-21.1814V68.0002H143V-22.6914Z" fill="white"/>
</mask>
<g mask="url(#mask1_1287_1304)">
<path d="M18.3954 40.6836H13.0923V44.1675H18.3954V40.6836Z" fill="#C7D9A7"/>
</g>
<mask id="mask2_1287_1304" style="mask-type:luminance" maskUnits="userSpaceOnUse" x="-22" y="-23" width="158" height="92">
<path d="M135.826 -22.6914H-21.1814V68.0002H135.826V-22.6914Z" fill="white"/>
</mask>
<g mask="url(#mask2_1287_1304)">
<path d="M57.8682 4.94409H13.3535V6.28376H57.8682V4.94409Z" fill="#063231"/>
</g>
<mask id="mask3_1287_1304" style="mask-type:luminance" maskUnits="userSpaceOnUse" x="-22" y="-23" width="158" height="92">
<path d="M135.55 -22.5015H-21.1722V68.0002H135.55V-22.5015Z" fill="white"/>
</mask>
<g mask="url(#mask3_1287_1304)">
<path d="M57.8681 50.3872H13.3533V51.7288H57.8681V50.3872Z" fill="#063231"/>
</g>
<path d="M75.7566 16.4932H73.4682V15.6555H78.9909V16.4932H76.7025V22.4052H75.7566V16.4932Z" fill="#063231"/>
<path d="M85.7739 15.6523V22.4052H84.8185V19.3947H80.9844V22.4052H80.029V15.6523H80.9844V18.5538H84.8185V15.6523H85.7739Z" fill="#063231"/>
<path d="M92.6196 21.5644V22.4021H87.7729V15.6492H92.4863V16.4869H88.7283V18.5602H92.0769V19.3787H88.7283V21.558H92.6196V21.5644Z" fill="#063231"/>
<path d="M102.142 19.4974C102.364 19.783 102.475 20.1457 102.475 20.5822C102.475 21.1663 102.256 21.6189 101.821 21.9334C101.386 22.248 100.752 22.4052 99.9168 22.4052H96.7301V15.6523H99.7263C100.488 15.6523 101.078 15.8064 101.494 16.1145C101.91 16.4226 102.12 16.8495 102.12 17.3983C102.12 17.7514 102.04 18.0563 101.875 18.3163C101.713 18.573 101.494 18.7688 101.221 18.9036C101.612 19.0127 101.916 19.2117 102.142 19.4974ZM97.6855 16.4355V18.5955H99.6406C100.129 18.5955 100.507 18.5024 100.771 18.3195C101.034 18.1365 101.167 17.8669 101.167 17.5139C101.167 17.1608 101.034 16.8912 100.771 16.7083C100.507 16.5253 100.129 16.4323 99.6406 16.4323H97.6855V16.4355ZM101.101 21.3525C101.374 21.1728 101.51 20.8903 101.51 20.5052C101.51 19.7541 100.967 19.3754 99.8787 19.3754H97.6855V21.6221H99.8787C100.421 21.6221 100.828 21.5322 101.101 21.3525Z" fill="#063231"/>
<path d="M108.798 21.5644V22.4021H103.951V15.6492H108.661V16.4869H104.903V18.5602H108.252V19.3787H104.903V21.558H108.798V21.5644Z" fill="#063231"/>
<path d="M110.835 22.2449C110.368 22.0876 110 21.8822 109.734 21.6319L110.086 20.8808C110.34 21.1119 110.667 21.3013 111.064 21.4457C111.46 21.5901 111.87 21.664 112.289 21.664C112.841 21.664 113.254 21.5677 113.53 21.3783C113.806 21.1889 113.939 20.9354 113.939 20.6209C113.939 20.3898 113.863 20.2004 113.714 20.056C113.565 19.9115 113.381 19.7992 113.162 19.7222C112.943 19.6451 112.631 19.5585 112.232 19.4622C111.73 19.3402 111.324 19.2183 111.016 19.0963C110.708 18.9744 110.445 18.785 110.222 18.5314C110.003 18.2779 109.892 17.9345 109.892 17.5044C109.892 17.1449 109.984 16.8207 110.175 16.5287C110.362 16.2398 110.648 16.0087 111.029 15.8354C111.41 15.6621 111.882 15.5754 112.451 15.5754C112.844 15.5754 113.231 15.6268 113.615 15.7295C113.999 15.8322 114.323 15.9798 114.596 16.1724L114.282 16.9427C114.003 16.763 113.704 16.625 113.384 16.5319C113.066 16.4388 112.755 16.3907 112.451 16.3907C111.911 16.3907 111.505 16.4902 111.235 16.6892C110.965 16.8881 110.829 17.1449 110.829 17.4594C110.829 17.6905 110.905 17.8799 111.057 18.0243C111.21 18.1687 111.4 18.2811 111.625 18.3613C111.851 18.4416 112.159 18.5282 112.546 18.6181C113.047 18.74 113.454 18.862 113.758 18.984C114.063 19.1059 114.326 19.2921 114.545 19.5424C114.764 19.7928 114.875 20.1298 114.875 20.5567C114.875 20.9097 114.78 21.2339 114.59 21.5259C114.399 21.818 114.111 22.0491 113.72 22.2192C113.33 22.3893 112.857 22.476 112.289 22.476C111.787 22.4824 111.302 22.4022 110.835 22.2449Z" fill="#063231"/>
<path d="M117.508 16.4934H115.219V15.6558H120.742V16.4934H118.453V22.4054H117.508V16.4934Z" fill="#063231"/>
<path d="M65.1882 38.5127C64.7216 38.3554 64.3535 38.15 64.0869 37.8997L64.4392 37.1486C64.6931 37.3797 65.02 37.5691 65.4168 37.7135C65.8135 37.858 66.2229 37.9318 66.6419 37.9318C67.1942 37.9318 67.6068 37.8355 67.8829 37.6461C68.1559 37.4568 68.2924 37.2032 68.2924 36.8887C68.2924 36.6576 68.2162 36.4682 68.067 36.3238C67.9179 36.1794 67.7338 36.067 67.5148 35.99C67.2958 35.913 66.9847 35.8263 66.5848 35.73C66.0833 35.6081 65.677 35.4861 65.3691 35.3641C65.0613 35.2422 64.7978 35.0528 64.5788 34.7993C64.3598 34.5457 64.2487 34.2023 64.2487 33.7722C64.2487 33.4127 64.3408 33.0886 64.5312 32.7965C64.7185 32.5076 65.0041 32.2766 65.385 32.1032C65.7659 31.9299 66.2388 31.8433 66.807 31.8433C67.2005 31.8433 67.5878 31.8946 67.9718 31.9973C68.3559 32.1 68.6796 32.2477 68.9557 32.4402L68.6415 33.2105C68.3622 33.0308 68.0639 32.8928 67.7465 32.7997C67.4291 32.7066 67.118 32.6585 66.8101 32.6585C66.2706 32.6585 65.8643 32.758 65.5945 32.957C65.3247 33.156 65.1882 33.4127 65.1882 33.7273C65.1882 33.9584 65.2644 34.1477 65.4168 34.2921C65.5691 34.4366 65.7595 34.5489 65.9849 34.6291C66.2103 34.7094 66.5181 34.7961 66.9054 34.8859C67.4068 35.0079 67.8099 35.1298 68.1178 35.2518C68.4257 35.3738 68.686 35.5599 68.905 35.8103C69.124 36.0606 69.2351 36.3976 69.2351 36.8245C69.2351 37.1775 69.1398 37.5017 68.9494 37.7938C68.759 38.0858 68.4701 38.3169 68.0829 38.487C67.6957 38.6571 67.2164 38.7438 66.6514 38.7438C66.1404 38.7502 65.6548 38.67 65.1882 38.5127Z" fill="#063231"/>
<path d="M71.8599 32.7605H69.5714V31.9229H75.0941V32.7605H72.8057V38.6725H71.8599V32.7605Z" fill="#063231"/>
<path d="M76.7069 37.9793C76.2117 37.4657 75.9642 36.7243 75.9642 35.7615V31.9229H76.9164V35.723C76.9164 37.1705 77.5416 37.8926 78.7954 37.8926C79.4048 37.8926 79.8745 37.7129 80.1983 37.3566C80.522 37.0004 80.6839 36.4547 80.6839 35.723V31.9229H81.6107V35.7615C81.6107 36.734 81.3631 37.4722 80.868 37.9857C80.3728 38.496 79.6777 38.7528 78.789 38.7528C77.894 38.7496 77.202 38.4928 76.7069 37.9793Z" fill="#063231"/>
<path d="M83.5626 31.9194H86.3779C87.0826 31.9194 87.711 32.0607 88.2569 32.3431C88.8029 32.6255 89.2282 33.0235 89.5297 33.5338C89.8312 34.0442 89.9836 34.6315 89.9836 35.2927C89.9836 35.9538 89.8312 36.5412 89.5297 37.0515C89.2282 37.5618 88.8029 37.9598 88.2569 38.2422C87.711 38.5247 87.0826 38.6659 86.3779 38.6659H83.5626V31.9194ZM86.3208 37.8314C86.8604 37.8314 87.3365 37.7255 87.7459 37.5137C88.1554 37.3019 88.4728 37.0034 88.695 36.6214C88.9171 36.2395 89.0282 35.7966 89.0282 35.2959C89.0282 34.7952 88.9171 34.3523 88.695 33.9703C88.4728 33.5884 88.1554 33.2899 87.7459 33.0781C87.3365 32.8663 86.8604 32.7603 86.3208 32.7603H84.518V37.8346H86.3208V37.8314Z" fill="#063231"/>
<path d="M93.7227 36.3392V38.6725H92.7769V36.3199L90.1266 31.9229H91.1486L93.2847 35.4822L95.4303 31.9229H96.373L93.7227 36.3392Z" fill="#063231"/>
<path d="M104.527 35.2575H105.441V37.8894C105.111 38.1654 104.727 38.3772 104.286 38.5249C103.848 38.6725 103.391 38.7463 102.911 38.7463C102.238 38.7463 101.629 38.5955 101.089 38.297C100.55 37.9985 100.124 37.5877 99.8166 37.0613C99.5087 36.5381 99.3532 35.9476 99.3532 35.2928C99.3532 34.6381 99.5087 34.0443 99.8166 33.518C100.124 32.9916 100.55 32.5808 101.096 32.2823C101.642 31.9838 102.251 31.8394 102.933 31.8394C103.467 31.8394 103.952 31.9292 104.387 32.1058C104.822 32.2823 105.193 32.5422 105.498 32.8825L104.908 33.4794C104.374 32.9595 103.727 32.6995 102.972 32.6995C102.464 32.6995 102.007 32.8118 101.604 33.0333C101.2 33.2548 100.883 33.5629 100.655 33.9577C100.426 34.3524 100.312 34.7986 100.312 35.2928C100.312 35.7807 100.426 36.2236 100.655 36.6184C100.883 37.0132 101.2 37.3245 101.604 37.5491C102.007 37.7738 102.461 37.8861 102.962 37.8861C103.559 37.8861 104.082 37.7417 104.527 37.4529V35.2575Z" fill="#063231"/>
<path d="M107.951 37.9793C107.456 37.4657 107.209 36.7243 107.209 35.7615V31.9229H108.164V35.723C108.164 37.1705 108.789 37.8926 110.043 37.8926C110.653 37.8926 111.122 37.7129 111.446 37.3566C111.77 37.0004 111.932 36.4547 111.932 35.723V31.9229H112.858V35.7615C112.858 36.734 112.611 37.4722 112.116 37.9857C111.621 38.4992 110.925 38.7528 110.037 38.7528C109.148 38.7528 108.45 38.4928 107.951 37.9793Z" fill="#063231"/>
<path d="M114.811 31.9194H115.763V38.6723H114.811V31.9194Z" fill="#063231"/>
<path d="M117.765 31.9194H120.581C121.285 31.9194 121.914 32.0607 122.46 32.3431C123.006 32.6255 123.431 33.0235 123.733 33.5338C124.034 34.0442 124.186 34.6315 124.186 35.2927C124.186 35.9538 124.034 36.5412 123.733 37.0515C123.431 37.5618 123.006 37.9598 122.46 38.2422C121.914 38.5247 121.285 38.6659 120.581 38.6659H117.765V31.9194ZM120.524 37.8314C121.063 37.8314 121.539 37.7255 121.949 37.5137C122.358 37.3019 122.676 37.0034 122.898 36.6214C123.12 36.2395 123.231 35.7966 123.231 35.2959C123.231 34.7952 123.12 34.3523 122.898 33.9703C122.676 33.5884 122.358 33.2899 121.949 33.0781C121.539 32.8663 121.063 32.7603 120.524 32.7603H118.721V37.8346H120.524V37.8314Z" fill="#063231"/>
<path d="M130.49 37.8315V38.6691H125.643V31.9163H130.353V32.7539H126.595V34.8273H129.944V35.6458H126.595V37.825H130.49V37.8315Z" fill="#063231"/>
</g>
<defs>
<clipPath id="clip0_1287_1304">
<rect width="165" height="67.3244" fill="white" transform="translate(0 0.675781)"/>
</clipPath>
</defs>
</svg>
