<svg width="24" height="25" viewBox="0 0 24 25" fill="none" xmlns="http://www.w3.org/2000/svg">
<path d="M7.68 2.11572C4.2384 2.11572 1.44 4.91412 1.44 8.35572V16.9957C1.44 20.4373 4.2384 23.2357 7.68 23.2357H16.32C19.7616 23.2357 22.56 20.4373 22.56 16.9957V8.35572C22.56 4.91412 19.7616 2.11572 16.32 2.11572H7.68ZM17.76 5.95572C18.288 5.95572 18.72 6.38772 18.72 6.91572C18.72 7.44372 18.288 7.87572 17.76 7.87572C17.232 7.87572 16.8 7.44372 16.8 6.91572C16.8 6.38772 17.232 5.95572 17.76 5.95572ZM12 7.39572C14.9136 7.39572 17.28 9.76212 17.28 12.6757C17.28 15.5893 14.9136 17.9557 12 17.9557C9.0864 17.9557 6.72 15.5893 6.72 12.6757C6.72 9.76212 9.0864 7.39572 12 7.39572ZM12 8.35572C9.6192 8.35572 7.68 10.2949 7.68 12.6757C7.68 15.0565 9.6192 16.9957 12 16.9957C14.3808 16.9957 16.32 15.0565 16.32 12.6757C16.32 10.2949 14.3808 8.35572 12 8.35572Z" fill="#0B111C"/>
</svg>
