<svg width="24" height="25" viewBox="0 0 24 25" fill="none" xmlns="http://www.w3.org/2000/svg">
<path d="M19.68 2.5957H4.32C2.9952 2.5957 1.92 3.6709 1.92 4.9957V20.3557C1.92 21.6805 2.9952 22.7557 4.32 22.7557H19.68C21.0048 22.7557 22.08 21.6805 22.08 20.3557V4.9957C22.08 3.6709 21.0048 2.5957 19.68 2.5957ZM8.16 10.2757V19.3957H5.28V10.2757H8.16ZM5.28 7.6213C5.28 6.9493 5.856 6.4357 6.72 6.4357C7.584 6.4357 8.1264 6.9493 8.16 7.6213C8.16 8.2933 7.6224 8.8357 6.72 8.8357C5.856 8.8357 5.28 8.2933 5.28 7.6213ZM18.72 19.3957H15.84C15.84 19.3957 15.84 14.9509 15.84 14.5957C15.84 13.6357 15.36 12.6757 14.16 12.6565H14.1216C12.96 12.6565 12.48 13.6453 12.48 14.5957C12.48 15.0325 12.48 19.3957 12.48 19.3957H9.6V10.2757H12.48V11.5045C12.48 11.5045 13.4064 10.2757 15.2688 10.2757C17.1744 10.2757 18.72 11.5861 18.72 14.2405V19.3957Z" fill="#0B111C"/>
</svg>
