<svg width="24" height="25" viewBox="0 0 24 25" fill="none" xmlns="http://www.w3.org/2000/svg">
<path d="M5.28 2.5957C3.42432 2.5957 1.92 4.10002 1.92 5.9557V19.3957C1.92 21.2514 3.42432 22.7557 5.28 22.7557H18.72C20.5757 22.7557 22.08 21.2514 22.08 19.3957V5.9557C22.08 4.10002 20.5757 2.5957 18.72 2.5957H5.28ZM6.28125 6.9157H10.0912L12.7969 10.7604L16.08 6.9157H17.28L13.3387 11.5301L18.1987 18.4357H14.3897L11.25 13.9751L7.44 18.4357H6.24L10.7081 13.2054L6.28125 6.9157ZM8.11875 7.8757L14.8903 17.4757H16.3612L9.58969 7.8757H8.11875Z" fill="#0B111C"/>
</svg>
